<svg width="103" height="100" viewBox="0 0 103 100" fill="none" xmlns="http://www.w3.org/2000/svg">
<g filter="url(#filter0_d_64_3911)">
<path d="M12.8 65.72C11.12 65.72 9.64 65.4267 8.36 64.84C7.08 64.2533 6.09333 63.44 5.4 62.4C4.70667 61.3333 4.36 60.1067 4.36 58.72C4.36 57.5467 4.6 56.48 5.08 55.52C5.58667 54.56 6.25333 53.8 7.08 53.24C7.93333 52.68 8.86667 52.4 9.88 52.4C10.8133 52.4 11.6 52.64 12.24 53.12C12.88 53.5733 13.28 54.2133 13.44 55.04C12.0533 55.04 10.9467 55.4133 10.12 56.16C9.29333 56.88 8.88 57.8667 8.88 59.12C8.88 60.2667 9.22667 61.1867 9.92 61.88C10.6133 62.5733 11.5333 62.92 12.68 62.92C14.0933 62.92 15.2533 62.4533 16.16 61.52C17.0933 60.56 17.56 59.36 17.56 57.92C17.56 56.6667 17.2133 55.48 16.52 54.36C15.8267 53.24 14.7867 51.88 13.4 50.28C11.96 48.6267 10.8667 47.2133 10.12 46.04C9.4 44.84 9.04 43.5333 9.04 42.12C9.04 40.7333 9.42667 39.4933 10.2 38.4C10.9733 37.28 12.04 36.4 13.4 35.76C14.76 35.12 16.2933 34.8 18 34.8C20.16 34.8 21.88 35.3067 23.16 36.32C24.4667 37.3333 25.12 38.6933 25.12 40.4C25.12 41.52 24.84 42.4267 24.28 43.12C23.72 43.8133 22.9867 44.16 22.08 44.16C21.0667 44.16 20.2533 43.7467 19.64 42.92C20.1467 42.5467 20.5467 42.0533 20.84 41.44C21.1333 40.8267 21.28 40.1867 21.28 39.52C21.28 38.6667 21.0267 37.9867 20.52 37.48C20.0133 36.9733 19.32 36.72 18.44 36.72C17.3733 36.72 16.4933 37.1067 15.8 37.88C15.1333 38.6267 14.8 39.5867 14.8 40.76C14.8 41.8267 15.1067 42.8267 15.72 43.76C16.3333 44.6667 17.2933 45.84 18.6 47.28C19.6667 48.4267 20.52 49.4133 21.16 50.24C21.8267 51.0667 22.3867 52.0267 22.84 53.12C23.32 54.1867 23.56 55.3467 23.56 56.6C23.56 58.3067 23.08 59.8533 22.12 61.24C21.1867 62.6267 19.8933 63.72 18.24 64.52C16.6133 65.32 14.8 65.72 12.8 65.72ZM38.4475 65.21C37.0242 65.21 35.9742 64.8367 35.2975 64.09C34.6442 63.32 34.3175 62.375 34.3175 61.255C34.3175 60.765 34.3758 60.2167 34.4925 59.61C34.6092 58.98 34.7258 58.3733 34.8425 57.79C34.9825 57.2067 35.0758 56.8333 35.1225 56.67C35.3092 55.8533 35.4842 55.0483 35.6475 54.255C35.8108 53.4617 35.8925 52.82 35.8925 52.33C35.8925 51.14 35.4725 50.545 34.6325 50.545C34.0258 50.545 33.4892 50.8483 33.0225 51.455C32.5558 52.0383 32.1825 52.8083 31.9025 53.765L29.5225 65H24.4825L28.1925 47.5H33.2325L32.8475 49.32C34.0142 48.0133 35.3792 47.36 36.9425 47.36C38.1325 47.36 39.0775 47.6867 39.7775 48.34C40.4775 48.9933 40.8275 49.985 40.8275 51.315C40.8275 51.9917 40.7458 52.75 40.5825 53.59C40.4192 54.4067 40.1858 55.41 39.8825 56.6C39.6958 57.3233 39.5208 58.035 39.3575 58.735C39.2175 59.4117 39.1475 59.9483 39.1475 60.345C39.1475 60.8117 39.2525 61.1733 39.4625 61.43C39.6725 61.6867 40.0342 61.815 40.5475 61.815C41.2475 61.815 41.8075 61.57 42.2275 61.08C42.6475 60.5667 43.0675 59.785 43.4875 58.735H44.9575C44.0942 61.3017 43.0908 63.0283 41.9475 63.915C40.8275 64.7783 39.6608 65.21 38.4475 65.21ZM49.3284 45.61C48.5584 45.61 47.9051 45.3417 47.3684 44.805C46.8317 44.2683 46.5634 43.615 46.5634 42.845C46.5634 42.075 46.8317 41.4217 47.3684 40.885C47.9051 40.325 48.5584 40.045 49.3284 40.045C50.0984 40.045 50.7517 40.325 51.2884 40.885C51.8484 41.4217 52.1284 42.075 52.1284 42.845C52.1284 43.615 51.8484 44.2683 51.2884 44.805C50.7517 45.3417 50.0984 45.61 49.3284 45.61ZM46.9484 65.21C45.8284 65.21 44.9184 64.86 44.2184 64.16C43.5417 63.46 43.2034 62.41 43.2034 61.01C43.2034 60.4267 43.2967 59.6683 43.4834 58.735L45.8634 47.5H50.9034L48.3834 59.4C48.2901 59.75 48.2434 60.1233 48.2434 60.52C48.2434 60.9867 48.3484 61.325 48.5584 61.535C48.7917 61.7217 49.1651 61.815 49.6784 61.815C50.3551 61.815 50.9851 61.535 51.5684 60.975C52.1517 60.3917 52.5717 59.645 52.8284 58.735H54.2984C53.4351 61.255 52.3267 62.97 50.9734 63.88C49.6201 64.7667 48.2784 65.21 46.9484 65.21ZM55.4745 46.205H60.5145L59.9545 48.83C61.1211 47.8267 62.4861 47.325 64.0495 47.325C65.3561 47.325 66.3945 47.7567 67.1645 48.62C67.9345 49.4833 68.3195 50.895 68.3195 52.855C68.3195 54.6983 68.0511 56.565 67.5145 58.455C66.9778 60.3217 66.0678 61.92 64.7845 63.25C63.5011 64.5567 61.8095 65.21 59.7095 65.21C58.2161 65.21 57.2245 64.79 56.7345 63.95L54.9145 72.49L49.6295 73.75L55.4745 46.205ZM58.6245 62.165C59.7445 62.165 60.6661 61.64 61.3895 60.59C62.1361 59.54 62.6728 58.2917 62.9995 56.845C63.3495 55.375 63.5245 54.01 63.5245 52.75C63.5245 50.8133 62.9411 49.845 61.7745 49.845C61.3545 49.845 60.9228 49.9967 60.4795 50.3C60.0595 50.6033 59.6861 51.0233 59.3595 51.56L57.2945 61.36C57.4811 61.8967 57.9245 62.165 58.6245 62.165ZM74.1915 65.21C72.4649 65.21 71.1232 64.7667 70.1665 63.88C69.2099 62.97 68.7315 61.5583 68.7315 59.645C68.7315 58.035 69.0465 56.2617 69.6765 54.325C70.3065 52.3883 71.3332 50.72 72.7565 49.32C74.1799 47.8967 75.9882 47.185 78.1815 47.185C80.7482 47.185 82.0315 48.305 82.0315 50.545C82.0315 51.8517 81.6582 53.0533 80.9115 54.15C80.1649 55.2467 79.1732 56.1333 77.9365 56.81C76.6999 57.4633 75.3815 57.8367 73.9815 57.93C73.9349 58.63 73.9115 59.0967 73.9115 59.33C73.9115 60.4733 74.1099 61.255 74.5065 61.675C74.9032 62.0717 75.5449 62.27 76.4315 62.27C77.6915 62.27 78.7649 61.9783 79.6515 61.395C80.5615 60.8117 81.5532 59.925 82.6265 58.735H83.8165C81.2265 63.0517 78.0182 65.21 74.1915 65.21ZM74.2615 56.25C75.1249 56.2033 75.9415 55.9 76.7115 55.34C77.5049 54.78 78.1349 54.0683 78.6015 53.205C79.0915 52.3417 79.3365 51.4317 79.3365 50.475C79.3365 49.5183 79.0449 49.04 78.4615 49.04C77.6215 49.04 76.7932 49.775 75.9765 51.245C75.1832 52.715 74.6115 54.3833 74.2615 56.25ZM84.9991 47.5H90.0391L89.5841 49.67C90.3775 48.97 91.0891 48.4333 91.7191 48.06C92.3725 47.6867 93.0725 47.5 93.8191 47.5C94.5658 47.5 95.1491 47.7567 95.5691 48.27C96.0125 48.7833 96.2341 49.4017 96.2341 50.125C96.2341 50.8017 96.0125 51.3967 95.5691 51.91C95.1258 52.4233 94.5075 52.68 93.7141 52.68C93.2008 52.68 92.8508 52.5633 92.6641 52.33C92.5008 52.0733 92.3725 51.7117 92.2791 51.245C92.2091 50.9417 92.1391 50.72 92.0691 50.58C91.9991 50.44 91.8708 50.37 91.6841 50.37C91.1941 50.37 90.7741 50.475 90.4241 50.685C90.0975 50.8717 89.6658 51.21 89.1291 51.7L86.3291 65H81.2891L84.9991 47.5Z" fill="#CCA152"/>
</g>
<defs>
<filter id="filter0_d_64_3911" x="0.359863" y="34.7998" width="99.8745" height="46.9502" filterUnits="userSpaceOnUse" color-interpolation-filters="sRGB">
<feFlood flood-opacity="0" result="BackgroundImageFix"/>
<feColorMatrix in="SourceAlpha" type="matrix" values="0 0 0 0 0 0 0 0 0 0 0 0 0 0 0 0 0 0 127 0" result="hardAlpha"/>
<feOffset dy="4"/>
<feGaussianBlur stdDeviation="2"/>
<feComposite in2="hardAlpha" operator="out"/>
<feColorMatrix type="matrix" values="0 0 0 0 0 0 0 0 0 0 0 0 0 0 0 0 0 0 0.25 0"/>
<feBlend mode="normal" in2="BackgroundImageFix" result="effect1_dropShadow_64_3911"/>
<feBlend mode="normal" in="SourceGraphic" in2="effect1_dropShadow_64_3911" result="shape"/>
</filter>
</defs>
</svg>
