<svg width="48" height="48" viewBox="0 0 48 48" fill="none" xmlns="http://www.w3.org/2000/svg">
<path d="M0 23.8892C0 10.6923 10.6923 0 23.8892 0C37.086 0 47.7783 10.6923 47.7783 23.8892C47.7783 37.086 37.086 47.7783 23.8892 47.7783C10.6923 47.7783 0 37.086 0 23.8892ZM22.2516 12.9175L9.19926 25.9698C8.29378 26.8753 8.29378 28.3395 9.19926 29.2353L10.8368 30.8729C11.7423 31.7784 13.2065 31.7784 14.1023 30.8729L23.8892 21.086L33.676 30.8729C34.5815 31.7784 36.0457 31.7784 36.9415 30.8729L38.5791 29.2353C39.4846 28.3299 39.4846 26.8657 38.5791 25.9698L25.5267 12.9175C24.6213 12.012 23.1571 12.012 22.2516 12.9175V12.9175Z" fill="black"/>
</svg>
