<svg width="49" height="49" viewBox="0 0 49 49" fill="none" xmlns="http://www.w3.org/2000/svg">
<path d="M48.4922 24.8472C48.4922 38.044 37.7999 48.7364 24.603 48.7364C11.4062 48.7364 0.713867 38.044 0.713867 24.8472C0.713867 11.6503 11.4062 0.958008 24.603 0.958008C37.7999 0.958008 48.4922 11.6503 48.4922 24.8472ZM26.2406 35.8189L39.293 22.7665C40.1984 21.861 40.1984 20.3969 39.293 19.501L37.6554 17.8634C36.7499 16.958 35.2857 16.958 34.3899 17.8634L24.603 27.6503L14.8162 17.8634C13.9107 16.958 12.4465 16.958 11.5507 17.8634L9.91312 19.501C9.00765 20.4065 9.00765 21.8707 9.91312 22.7665L22.9655 35.8189C23.871 36.7243 25.3351 36.7243 26.2406 35.8189Z" fill="black"/>
</svg>
